#!OML:ASF F:\VICON\USERDATA\INSTALL\rory3\rory3.ASF
:FULLY-SPECIFIED
:DEGREES
43
root 0.5741860771501196 17.791582790825366 3.5319873649152465 -2.172253215401343 0.7086515698204414 1.9817738625007943
lfemur 9.708333986309201 -2.662814195617508 -24.750960487113943
ltibia 17.930911036262934
lfoot -17.602294727472895 -3.2583374268340006
ltoes -3.8904346536147933
rfemur -26.781511669954437 8.270495828528581 16.52500637346779
rtibia 15.136052638963715
rfoot -8.683199041735074 -14.868623338352517
rtoes -7.106051442379817
lowerback 9.82909295000315 -1.3784582940846006 -4.092684608196037
upperback 0.8994014681160136 -2.1564709618359843 1.058963819086094
thorax -4.5075294460415165 -0.9577286749118128 3.767661060443456
lowerneck -16.09500903230454 -2.877435544575498 -1.9236918020997558
upperneck 23.911507526243945 -3.4617516816936478 -0.18518676797096562
head 10.472017118325468 -1.769156310129781 -0.21958483395411332
lclavicle -1.3860425058717622e-15 -1.8424126836139842e-15
lhumerus -20.266933597029436 -2.5337713030305276 79.85889954558385
lradius 30.495673653152238
lwrist 7.895457280792812
lhand -27.959594542352313 24.267972865869037
lfingers 7.125019999999999
lthumb -1.4942688013201657 53.63480074415449
rclavicle -1.3867186452654484e-15 -1.8409936246075686e-15
rhumerus -35.1366029606265 -28.189560298445787 -71.38899290480634
rradius 20.994045749844737
rwrist 8.164361555589233
rhand -17.266646732230463 23.43091877065259
rfingers 7.125019999999999
rthumb 8.774067299087456 -6.4189563849451226
44
root 0.502543670081963 17.71380718442166 4.284525406428334 -2.24688016978424 0.4278497576023723 1.8501122713677254
lfemur 11.240030239430348 -3.314009152121876 -24.635554914389143
ltibia 19.51334187806797
lfoot -17.36310986234104 -4.0173874693222285
ltoes -6.971864029578336
rfemur -27.177696404425816 5.034520588626483 18.51620558771424
rtibia 19.152574486832563
rfoot -8.310253258684781 -10.98060046786026
rtoes -7.425240721260888
lowerback 9.968632455604634 -1.2599952496954803 -4.044465218125812
upperback 0.9517205549439441 -2.0010969146526345 1.1539630388419408
thorax -4.4997584344380686 -0.891564052583 3.8157396611467274
lowerneck -16.190920353709522 -2.9090244710797424 -2.0461711301135526
upperneck 23.79359518873261 -3.4737518431252044 -0.20963860561731884
head 10.48113070521228 -1.7725395273238846 -0.22211967515411157
lclavicle -1.3858416359093195e-15 -1.842225871012056e-15
lhumerus -20.00107587959836 -2.5548268851944735 79.94086965563102
lradius 31.43768470496957
lwrist 8.16815303948162
lhand -29.473429022508235 23.25056544646337
lfingers 7.125019999999999
lthumb -2.844153605843622 52.99838304286658
rclavicle -1.3836814387648016e-15 -1.838320993975068e-15
rhumerus -36.3199167078757 -30.42991463149529 -69.109839617996
rradius 19.655735725288686
rwrist 10.817212793718149
rhand -17.453630607940635 23.353539225418512
rfingers 7.125019999999999
rthumb 8.658298011955493 -6.462104167020547
45
root 0.4128368531892752 17.679805630301086 5.0701067475990484 -2.240900570492425 0.7214762758247935 1.6590131342705976
lfemur 12.398334607043099 -4.2743379175061005 -24.40879232604088
ltibia 21.739569308507505
lfoot -16.033509700536875 -5.793866557624849
ltoes -13.288001845906315
rfemur -27.174414128782054 3.9957379729047724 19.773691351171706
rtibia 24.686935396460168
rfoot -7.080033313330824 -9.269159896742911
rtoes -5.943165427729674
lowerback 9.798368456008346 -1.3626426419478128 -3.9019037095924
upperback 0.8528694108527782 -2.049193264496217 1.2517607487253486
thorax -4.440950798128809 -0.932777193027263 3.8500518435515785
lowerneck -16.35857111425137 -2.812907435595522 -1.95481565356893
upperneck 23.928892142167292 -3.2897498443379614 -0.40791564662140845
head 10.521615704522109 -1.7149137872541358 -0.2641243144496058
lclavicle -1.3862369911078e-15 -1.8425931883327047e-15
lhumerus -20.40848443919723 -2.338446309720629 80.24967096750142
lradius 32.22113648313691
lwrist 8.372777317443827
lhand -30.55473108167182 22.434003824675038
lfingers 7.125019999999999
lthumb -3.76160825815592 52.25203499815095
rclavicle -1.3853873073144026e-15 -1.8400373881782392e-15
rhumerus -37.306718325518766 -31.95622901107304 -67.26594945704318
rradius 18.68191441275787
rwrist 12.268980315739178
rhand -17.681714907786976 23.121168451739095
rfingers 7.125019999999999
rthumb 8.509333389768994 -6.555333615625128
46
root 0.32375568644452346 17.776137451128545 5.698338918790739 -2.329521989173484 0.9655412142878428 0.6472845621510253
lfemur 11.775613788235122 -5.393126618653073 -23.33863199835243
ltibia 26.707817250157582
lfoot -9.645892555172106 -8.505443182745719
ltoes -18.65775047197079
rfemur -26.04838280231318 4.281496952878978 21.293389804921492
rtibia 27.359778395980978
rfoot -4.537539274810685 -7.664546856334098
rtoes -2.108758860076793
lowerback 9.564653631997496 -1.5540489753464353 -2.9238496315602918
upperback 0.6469373772825376 -2.190018433204369 1.6094179542887341
thorax -4.396590631112723 -1.0352020236862427 3.6326115873132805
lowerneck -16.310677626104273 -2.7351582674288455 -1.9561362497291397
upperneck 24.266444860954664 -3.100863489301186 -0.7801097128349828
head 10.579633081355174 -1.6720297521599345 -0.34915550085250946
lclavicle -1.3871458465146745e-15 -1.8434371410150087e-15
lhumerus -21.645514887514466 -1.5895404274174671 80.71345539081238
lradius 32.30310812539506
lwrist 7.926875703685361
lhand -31.28582306766575 21.986570309527515
lfingers 7.125019999999999
lthumb -4.485739984561485 52.24969739520269
rclavicle -1.3808768064263154e-15 -1.8359258923127857e-15
rhumerus -38.28740054875555 -33.31677738082898 -65.15838776603614
rradius 17.324840142103533
rwrist 15.669776923244873
rhand -17.874727165729656 22.97198594200787
rfingers 7.125019999999999
rthumb 8.369884190607133 -6.622213111779256
